<?xml version="1.0" standalone="no"?>
<!DOCTYPE svg PUBLIC "-//W3C//DTD SVG 20010904//EN"
 "http://www.w3.org/TR/2001/REC-SVG-20010904/DTD/svg10.dtd">
<svg version="1.0" xmlns="http://www.w3.org/2000/svg"
 width="212.000000pt" height="212.000000pt" viewBox="0 0 212.000000 212.000000"
 preserveAspectRatio="xMidYMid meet">
<metadata>
Created by potrace 1.14, written by Peter Selinger 2001-2017
</metadata>
<g transform="translate(0.000000,212.000000) scale(0.100000,-0.100000)"
fill="#000000" stroke="none">
<path d="M505 2104 c-14 -10 -31 -13 -56 -9 -22 4 -40 2 -44 -4 -6 -11 -4 -12
100 -17 103 -5 149 -12 153 -23 2 -6 13 -11 24 -11 17 0 18 3 8 15 -7 8 -21
15 -31 15 -11 0 -19 4 -19 9 0 16 -40 23 -56 10 -8 -6 -18 -9 -21 -5 -4 4 -1
12 7 17 12 9 12 10 -2 5 -10 -3 -18 -1 -18 4 0 15 -22 12 -45 -6z"/>
<path d="M767 2113 c-3 -5 -8 -22 -11 -40 -6 -28 -4 -32 16 -35 17 -2 24 -11
26 -30 3 -26 7 -28 48 -28 37 0 44 -3 44 -20 0 -13 7 -20 18 -20 11 0 32 -11
48 -25 16 -14 32 -25 37 -25 7 0 26 -18 112 -108 35 -37 46 -55 38 -63 -7 -7
-22 -4 -50 11 -43 22 -106 29 -137 15 -13 -6 -17 -5 -13 2 5 7 -11 10 -46 8
-28 -1 -52 -3 -52 -5 0 -2 -39 -7 -122 -15 -61 -5 -73 -4 -73 9 0 19 -56 46
-95 45 -16 -1 -57 4 -90 12 -72 15 -342 19 -353 4 -4 -6 -29 -19 -57 -30 l-50
-21 -3 -166 c-2 -165 -2 -167 20 -179 13 -7 26 -18 31 -25 4 -7 46 -25 93 -40
99 -30 158 -29 258 6 32 12 60 19 62 17 3 -2 23 12 45 33 29 26 43 49 50 81
15 70 29 97 54 103 40 10 80 -11 97 -52 37 -85 48 -115 48 -133 0 -10 9 -33
19 -51 23 -39 29 -71 16 -78 -6 -3 -11 5 -13 18 -2 12 -8 22 -13 22 -13 0 0
-62 14 -72 7 -4 15 -2 18 4 6 9 12 8 24 -2 13 -11 19 -10 38 7 20 19 28 20 86
12 53 -8 75 -6 135 12 39 11 78 22 88 25 10 3 24 -7 39 -28 17 -24 18 -29 5
-19 -17 14 -17 12 -10 -25 3 -21 11 -47 15 -56 6 -10 5 -19 -1 -23 -6 -4 -7
-13 -1 -23 11 -20 0 -45 -34 -79 -20 -21 -27 -22 -78 -13 -58 9 -117 41 -180
96 -25 23 -47 34 -67 34 l-31 0 26 -27 c40 -43 69 -93 59 -103 -14 -14 -67
-15 -91 -2 -19 11 -28 9 -60 -11 -26 -17 -48 -23 -69 -20 -19 3 -45 -3 -70
-16 l-38 -21 -21 24 c-32 38 -60 47 -157 51 -122 5 -124 9 -59 118 13 20 21
37 18 37 -14 0 -117 -51 -117 -58 0 -5 -18 -17 -40 -27 -22 -10 -40 -21 -40
-24 0 -3 -15 -12 -32 -19 -18 -8 -44 -18 -58 -24 -14 -5 -36 -15 -50 -22 l-25
-12 -3 -502 -2 -502 660 0 660 0 0 31 c0 16 4 28 8 25 15 -9 152 88 140 99 -3
3 -37 -1 -75 -8 l-71 -13 -7 69 c-6 68 -6 71 22 93 15 13 36 23 46 24 28 0 87
28 87 41 0 12 -34 9 -100 -8 -44 -12 -60 -7 -60 20 0 47 -32 172 -56 220 -25
48 -25 53 -15 126 23 160 30 270 24 369 l-6 102 25 0 c35 0 91 43 76 58 -7 7
-22 12 -35 12 -13 0 -32 9 -42 19 -11 11 -22 17 -25 13 -3 -3 -6 1 -7 9 -1 8
-2 23 -3 34 0 11 4 45 11 75 6 30 19 119 29 198 14 117 15 154 6 205 -7 34
-16 63 -22 65 -5 2 -10 10 -10 18 0 8 -5 14 -11 14 -6 0 -8 7 -5 17 4 10 4 14
0 11 -7 -8 -34 15 -34 29 0 4 -20 22 -45 38 -24 17 -45 33 -45 37 0 11 -73 29
-80 20 -7 -11 -51 -9 -68 1 -7 5 -19 4 -27 -3 -17 -15 -68 -9 -71 8 -1 7 0 8
3 2 6 -13 43 -13 43 0 0 9 -29 15 -58 11 -8 -1 -16 7 -19 18 -4 16 -13 21 -39
21 -18 0 -35 -3 -37 -7z m-471 -1077 c3 -8 23 -27 45 -42 21 -14 39 -30 39
-34 0 -14 -31 -20 -50 -10 -15 8 -19 4 -25 -23 -7 -31 -7 -32 -14 -7 -7 24 -7
24 -19 5 -11 -19 -12 -19 -9 5 1 18 -3 25 -15 24 -27 -2 -21 27 15 84 11 16
26 15 33 -2z m52 -318 c16 -16 15 -23 -4 -42 -19 -20 -34 -12 -34 18 0 35 16
46 38 24z m92 -13 c10 -12 15 -13 21 -4 11 19 99 2 99 -19 1 -15 2 -15 14 1
19 25 62 28 81 7 30 -33 -1 -41 -135 -35 -67 3 -126 8 -131 11 -5 3 -9 16 -9
30 0 19 5 24 24 24 13 0 29 -7 36 -15z m278 -27 c-4 -29 -38 -38 -38 -10 0 22
8 32 27 32 9 0 13 -8 11 -22z m-313 -48 c3 -5 -3 -10 -14 -10 -12 0 -21 5 -21
10 0 6 6 10 14 10 8 0 18 -4 21 -10z m79 -11 c-7 -12 -51 -12 -59 0 -6 11 22
19 47 13 10 -2 15 -8 12 -13z m76 1 c0 -5 -13 -10 -30 -10 -16 0 -30 5 -30 10
0 6 14 10 30 10 17 0 30 -4 30 -10z m55 0 c3 -5 -3 -10 -14 -10 -12 0 -21 5
-21 10 0 6 6 10 14 10 8 0 18 -4 21 -10z m-350 -17 c11 -2 52 -5 90 -8 39 -3
84 -12 100 -20 42 -19 127 -28 159 -16 15 6 26 7 26 1 0 -17 -21 -21 -132 -24
-62 -2 -113 -7 -115 -13 -2 -5 -17 -8 -33 -7 -17 1 -33 -3 -36 -8 -4 -6 -9 -5
-14 3 -6 9 -12 9 -24 -4 -9 -8 -16 -20 -16 -26 0 -6 -5 -11 -10 -11 -7 0 -7 6
0 19 14 26 13 38 -2 23 -17 -17 -45 -15 -52 4 -10 26 -7 32 17 36 21 4 21 5
-5 18 -16 7 -28 16 -28 20 0 10 44 28 50 21 3 -3 14 -7 25 -8z m-95 -18 c0 -8
-4 -15 -8 -15 -5 0 -9 7 -9 15 0 8 4 15 9 15 4 0 8 -7 8 -15z m530 -15 c0 -13
-28 -25 -38 -16 -3 4 0 11 8 16 20 13 30 12 30 0z m-460 -130 c0 -5 -4 -10
-10 -10 -5 0 -10 5 -10 10 0 6 5 10 10 10 6 0 10 -4 10 -10z m70 -51 c0 -13
25 -39 38 -39 21 0 72 -33 72 -46 0 -8 -4 -14 -10 -14 -5 0 -10 -5 -10 -10 0
-6 10 -4 23 5 21 13 23 13 24 -5 2 -20 -29 -36 -46 -25 -6 3 -15 -4 -21 -15
-14 -27 -38 -26 -42 3 -2 15 -9 21 -23 19 l-20 -3 20 17 c20 16 20 16 -4 9
-22 -7 -23 -5 -17 20 4 16 2 33 -5 41 -9 11 -9 18 -1 26 6 6 8 17 5 26 -4 10
-2 13 5 8 7 -4 12 -12 12 -17z m-233 -141 c-3 -8 -6 -5 -6 6 -1 11 2 17 5 13
3 -3 4 -12 1 -19z m353 -18 c0 -5 -5 -10 -11 -10 -5 0 -7 5 -4 10 3 6 8 10 11
10 2 0 4 -4 4 -10z"/>
<path d="M320 320 c0 -5 5 -10 11 -10 5 0 7 5 4 10 -3 6 -8 10 -11 10 -2 0 -4
-4 -4 -10z"/>
<path d="M81 2054 c0 -11 3 -14 6 -6 3 7 2 16 -1 19 -3 4 -6 -2 -5 -13z"/>
<path d="M125 2060 c3 -5 8 -10 11 -10 2 0 4 5 4 10 0 6 -5 10 -11 10 -5 0 -7
-4 -4 -10z"/>
<path d="M440 2010 c0 -5 5 -10 10 -10 6 0 10 5 10 10 0 6 -4 10 -10 10 -5 0
-10 -4 -10 -10z"/>
<path d="M2046 621 c-16 -18 -16 -20 15 -35 48 -24 59 -21 59 19 0 32 -3 35
-28 35 -16 0 -37 -9 -46 -19z"/>
<path d="M1825 588 c-16 -5 -39 -13 -50 -18 -11 -4 -29 -11 -40 -15 -16 -5
-17 -8 -5 -15 12 -8 11 -10 -5 -10 -35 -1 -89 -60 -55 -60 6 0 10 -12 10 -26
0 -23 3 -26 28 -21 72 13 155 41 159 54 6 18 -43 24 -80 8 -37 -15 -52 -9 -41
18 3 8 24 17 49 20 57 8 85 26 85 54 0 25 -9 27 -55 11z"/>
<path d="M1455 460 c-11 -5 -33 -9 -48 -9 -23 -1 -27 -4 -22 -20 3 -12 1 -21
-7 -24 -7 -2 0 -3 17 -1 37 5 98 36 97 49 -1 13 -13 15 -37 5z"/>
</g>
</svg>
